<svg xmlns="http://www.w3.org/2000/svg" viewBox="0 0 512 512">
  <rect width="512" height="512" rx="108" fill="#1F3D1D"/>
  <rect x="116" y="256" width="280" height="168" rx="10" fill="#FFFDEE"/>
  <path d="M256 108 L432 256 L80 256 Z" fill="#FFFDEE"/>
  <rect x="340" y="148" width="36" height="88" rx="4" fill="#D1C7A3"/>
  <rect x="152" y="284" width="56" height="56" rx="8" fill="#1F3D1D"/>
  <line x1="180" y1="284" x2="180" y2="340" stroke="#FFFDEE" stroke-width="3" opacity=".5"/>
  <line x1="152" y1="312" x2="208" y2="312" stroke="#FFFDEE" stroke-width="3" opacity=".5"/>
  <rect x="304" y="284" width="56" height="56" rx="8" fill="#1F3D1D"/>
  <line x1="332" y1="284" x2="332" y2="340" stroke="#FFFDEE" stroke-width="3" opacity=".5"/>
  <line x1="304" y1="312" x2="360" y2="312" stroke="#FFFDEE" stroke-width="3" opacity=".5"/>
  <rect x="224" y="308" width="64" height="116" rx="8" fill="#1F3D1D"/>
  <circle cx="276" cy="370" r="5" fill="#7DA24B"/>
  <path d="M358 140 Q372 108 388 128 Q396 148 370 148 Z" fill="#7DA24B"/>
  <path d="M358 140 Q340 112 352 100 Q370 96 372 108" fill="#7DA24B" opacity=".8"/>
</svg>